# xmcd CD database file
#
# Track frame offsets:
#	183
#	47218
#	89323
#	135990
#	164653
#	197028
#
# Disc length: 3004 seconds
#
# Revision: 0
# Processed by: cddbd v1.4PL0 Copyright (c) Steve Scherf et al.
# Submitted via: CDex 1.50Beta7
#
DISCID=4d0bba06
DTITLE=Art Blakey And The Jazz Messengers - Moanin´
DYEAR=1980
DGENRE=Jazz
TTITLE0=Moanin´
TTITLE1=My Funny Valentine
TTITLE2=Soulful Mr. Timmons
TTITLE3=Au Privave
TTITLE4=Free For All
TTITLE5=Gypsey
EXTD=YEAR: 1980
EXTT0=
EXTT1=
EXTT2=
EXTT3=
EXTT4=
EXTT5=
PLAYORDER=
